<?xml version="1.0" encoding="utf-8"?>
<!-- Generator: Adobe Illustrator 21.1.0, SVG Export Plug-In . SVG Version: 6.00 Build 0)  -->
<svg version="1.1" id="Ebene_2" xmlns="http://www.w3.org/2000/svg" xmlns:xlink="http://www.w3.org/1999/xlink" x="0px" y="0px"
	 viewBox="0 0 128 128" style="enable-background:new 0 0 128 128;" xml:space="preserve">
<style type="text/css">
	.st0{fill:#16428D;}
	.st1{fill:#194593;}
	.st2{fill:url(#SVGID_1_);}
	.st3{fill:url(#SVGID_2_);}
	.st4{fill:url(#SVGID_3_);}
	.st5{fill:url(#SVGID_4_);}
	.st6{fill:url(#SVGID_5_);}
	.st7{fill:#7DC9CA;}
	.st8{fill:url(#SVGID_6_);}
	.st9{fill:#406EB5;}
	.st10{fill:#898E91;}
	.st11{fill:#5D6665;}
	.st12{fill:url(#SVGID_7_);}
	.st13{fill:url(#SVGID_8_);}
	.st14{fill:#F7FBFC;}
	.st15{fill:url(#SVGID_9_);}
	.st16{fill:#A1A79F;}
	.st17{fill:url(#SVGID_10_);}
	.st18{fill:url(#SVGID_11_);}
	.st19{fill:url(#SVGID_12_);}
	.st20{fill:url(#SVGID_13_);}
	.st21{fill:url(#SVGID_14_);}
	.st22{fill:url(#SVGID_15_);}
	.st23{fill:url(#SVGID_16_);}
	.st24{fill:url(#SVGID_17_);}
	.st25{fill:url(#SVGID_18_);}
	.st26{fill:url(#SVGID_19_);}
	.st27{fill:url(#SVGID_20_);}
	.st28{fill:none;stroke:#16428D;stroke-width:0.5;stroke-miterlimit:10;}
	.st29{fill:url(#SVGID_21_);}
	.st30{fill:url(#SVGID_22_);}
	.st31{fill:none;stroke:#16428D;stroke-width:0.75;stroke-miterlimit:10;}
	.st32{fill:#FFFFFF;}
	.st33{fill:#E20719;}
	.st34{fill:url(#SVGID_23_);stroke:#16428D;stroke-miterlimit:10;}
	.st35{clip-path:url(#SVGID_25_);fill:none;stroke:#FFFFFF;stroke-width:2.3;stroke-miterlimit:10;}
	.st36{opacity:0.5;clip-path:url(#SVGID_25_);fill:#FFFFFF;}
	.st37{fill:none;stroke:#16428D;stroke-miterlimit:10;}
</style>
<path class="st0" d="M248.4,148.2c-2.9-11.6-13.4-17.3-14.7-18c0,0,0,0,0,0l-0.2-0.1c3.2-7.7,4.8-9.3,3.3-22.6
	c-1.6-13.3-10.4-97.6-10.6-99c-0.3-1.7-0.8-1.9-2.9-1.7c-2.1,0.2-2.4,0.5-2.6,2.8c-0.2,2.4-0.3,52.7-0.3,52.7s-1.2-2.3-1.8-3.3
	c-0.8-1.5-12.4-25.3-16.4-27.4c0,0-0.2,13.5-0.5,31.3c0,0-15.2-13.5-18.5-16.3c-1.4-1.1-4.4-2.3-7.5-3.3v-7.9c0-6.6-5.4-12-12-12
	H94.7c-6.6,0-12,5.4-12,12v8.1c-2.9,1-5.7,2.1-7,3.2c-3.3,2.7-18.5,16.3-18.5,16.3c-0.3-17.8-0.5-31.3-0.5-31.3
	c-4,2.2-15.6,25.9-16.4,27.4c-0.5,0.9-1.8,3.3-1.8,3.3S38.5,12,38.3,9.6c-0.2-2.4-0.5-2.6-2.6-2.8c-2.1-0.2-2.6,0-2.9,1.7
	c-0.2,1.4-9,85.8-10.6,99c-1.5,13.3,0.1,14.9,3.3,22.6l-0.1,0.1c-1.2,0.6-11.9,6.3-14.8,18.1c-3.1,12.4-2.6,32.6,0,48.5
	c1.5,9.2,7.8,15.4,14.8,19c3.5,1.9,7.4,2.9,10.4,4c0.9,0.6,2.8,1.7,3.3,2c1.2,15.3,1.4,18.9,3.5,22.3c2.1,3.5,24.1,18.8,29.6,21.3
	s5.4-0.4,5.4-2.5c0-0.3,0-1.8-0.1-4.3c0-3.3-0.1-8.4-0.2-14.2c0.6,0.4,21.6,15.9,27.4,19.8c0.1,0.1,0.2,0.1,0.3,0.2
	c0.4,0.3,0.7,0.5,0.9,0.6c2.6,1.5,19.9,1.5,23.7,1.5c0,0,21.2,0,23.7-1.5c0.2-0.1,0.5-0.3,0.9-0.6c0.1-0.1,0.2-0.1,0.3-0.2
	c5.8-3.9,27.4-19.8,27.4-19.8c-0.1,5.8-0.2,10.8-0.2,14.2c0,2.5-0.1,4-0.1,4.3c0,2.1-0.1,5,5.4,2.5s27.5-17.8,29.6-21.3
	c2.1-3.5,2.3-6.7,3.5-22.4c0.6-0.5,3.1-1.7,3.5-2.1c1.4-0.5,3-1,4.7-1.6c0.1,0,0.2-0.1,0.3-0.1c0.3-0.1,0.6-0.2,0.9-0.3
	c0.3-0.1,0.6-0.2,0.9-0.4c0.2-0.1,0.3-0.1,0.5-0.2c0.4-0.2,0.7-0.3,1.1-0.5c0.1,0,0.2-0.1,0.3-0.1c0.5-0.2,1-0.5,1.4-0.7
	c7-3.7,13.3-9.9,14.8-19C251,180.8,251.5,160.6,248.4,148.2z"/>
<g>
	<path class="st0" d="M224.3,188.7c0.3-0.2,8.5-7.2,9.3-9.5c0.6-1.9,0.2-2.8,0.1-3.1c1,1.3,2,2.6,1.6,8.6
		c-0.4,6.2-1.6,31.1-1.6,31.1c-3.9,2.1-8.3,3.1-11.3,4.4c0.4-0.2,0.7-0.4,0.8-0.5C224,218.9,224.3,189.4,224.3,188.7L224.3,188.7z"
		/>
	<path d="M233.7,130.1C233.7,130.1,233.7,130.1,233.7,130.1c-0.1,0-0.2-0.1-0.2-0.1c0,0,0,0,0,0L233.7,130.1z"/>
	<path class="st1" d="M186.9,265.3c-5.5,2.5-5.4-0.4-5.4-2.5c0-0.3,0-1.8,0.1-4.3c0.2,1.3,1.3,3.2,7-1.7c7-6,19.7-14.3,19.8-17.3
		c0.1-3,2-56.3,2-56.3s3.5-4.8,8.5-9.8c4.8-4.8,7.3-14.2,7.5-15.1c0,6.2,0,13.6,0,13.6c0,4.4-9.2,13-10.3,14.1l-0.1,0.1l0,0v0.1
		l-0.6,37.3c0,0,2.5-1.2,4.6-2.4c-1.2,15.7-1.4,19.3-3.5,22.8C214.4,247.6,192.4,262.8,186.9,265.3z"/>
	<linearGradient id="SVGID_1_" gradientUnits="userSpaceOnUse" x1="204.94" y1="15.8262" x2="204.94" y2="266.9875">
		<stop  offset="0" style="stop-color:#16428D"/>
		<stop  offset="1.051603e-02" style="stop-color:#1C4791"/>
		<stop  offset="4.897042e-02" style="stop-color:#2A549D"/>
		<stop  offset="9.437173e-02" style="stop-color:#3360A8"/>
		<stop  offset="0.1505" style="stop-color:#3A68AF"/>
		<stop  offset="0.2293" style="stop-color:#3F6DB4"/>
		<stop  offset="0.448" style="stop-color:#406EB5"/>
		<stop  offset="0.4738" style="stop-color:#4370B6"/>
		<stop  offset="0.4937" style="stop-color:#4E76BA"/>
		<stop  offset="0.5116" style="stop-color:#5F81C0"/>
		<stop  offset="0.5149" style="stop-color:#6383C2"/>
		<stop  offset="0.5281" style="stop-color:#6081C0"/>
		<stop  offset="0.5384" style="stop-color:#567ABC"/>
		<stop  offset="0.5476" style="stop-color:#466EB4"/>
		<stop  offset="0.5562" style="stop-color:#2E5FAA"/>
		<stop  offset="0.5569" style="stop-color:#2B5DA8"/>
		<stop  offset="0.605" style="stop-color:#2D5EA9"/>
		<stop  offset="0.6254" style="stop-color:#3563AD"/>
		<stop  offset="0.6406" style="stop-color:#426BB2"/>
		<stop  offset="0.6531" style="stop-color:#5478BB"/>
		<stop  offset="0.6609" style="stop-color:#6383C2"/>
		<stop  offset="0.6819" style="stop-color:#6081C1"/>
		<stop  offset="0.6981" style="stop-color:#567BBD"/>
		<stop  offset="0.7127" style="stop-color:#4471B6"/>
		<stop  offset="0.7153" style="stop-color:#406EB5"/>
		<stop  offset="0.8412" style="stop-color:#3E6DB3"/>
		<stop  offset="0.8946" style="stop-color:#3A68AF"/>
		<stop  offset="0.9342" style="stop-color:#325FA7"/>
		<stop  offset="0.9671" style="stop-color:#28539C"/>
		<stop  offset="0.9955" style="stop-color:#1A458F"/>
		<stop  offset="1" style="stop-color:#16428D"/>
	</linearGradient>
	<path class="st2" d="M222.5,68.3c1.8,7.6,2.9,29.2,3.6,69.4c0.1,4.3,0.2,8.9,0.2,13.6c0,1.5,0,4.2,0,7.2
		c-0.2,0.8-2.8,10.3-7.5,15.1c-5,5-8.5,9.8-8.5,9.8s-14.1-0.3-22.9-0.9c-2.1-0.1-4.1-0.3-4.1-0.8c0,0,0-0.1,0-0.1
		c0.2-0.8,0.5-1.4,0.7-1.8c0.7-1.1,14.1-22.8,15.3-24.9c1.2-2.1,0.9-3.5,1-4.9c0.1-0.9,0.7-45.5,1.3-79.7c0-2.5,0.1-4.9,0.1-7.2
		c0.3-17.8,0.5-31.3,0.5-31.3c4,2.2,15.6,25.9,16.4,27.4c0.5,0.9,1.8,3.3,1.8,3.3S221.7,64.6,222.5,68.3z"/>
	<linearGradient id="SVGID_2_" gradientUnits="userSpaceOnUse" x1="7.695" y1="172.9312" x2="252.3698" y2="172.9312">
		<stop  offset="0" style="stop-color:#16428D"/>
		<stop  offset="2.986446e-02" style="stop-color:#265099"/>
		<stop  offset="6.608669e-02" style="stop-color:#315DA5"/>
		<stop  offset="0.1079" style="stop-color:#3967AE"/>
		<stop  offset="0.1598" style="stop-color:#3E6CB3"/>
		<stop  offset="0.2525" style="stop-color:#406EB5"/>
		<stop  offset="0.3404" style="stop-color:#4370B6"/>
		<stop  offset="0.4083" style="stop-color:#4E76BA"/>
		<stop  offset="0.4692" style="stop-color:#5F81C0"/>
		<stop  offset="0.4802" style="stop-color:#6383C2"/>
		<stop  offset="0.5949" style="stop-color:#6081C1"/>
		<stop  offset="0.6834" style="stop-color:#567BBD"/>
		<stop  offset="0.7629" style="stop-color:#4471B6"/>
		<stop  offset="0.7772" style="stop-color:#406EB5"/>
		<stop  offset="0.8266" style="stop-color:#3C6AB1"/>
		<stop  offset="0.8881" style="stop-color:#3360A7"/>
		<stop  offset="0.9556" style="stop-color:#254F98"/>
		<stop  offset="1" style="stop-color:#16428D"/>
	</linearGradient>
	<path class="st3" d="M226.5,158.5c0-3,0-5.7,0-7.2c-0.1-4.8-0.2-9.3-0.2-13.6h0.1l0,0.3c3.4-0.2,7.2-7.3,7.4-7.8
		c1.4,0.7,11.9,6.4,14.7,18.1c3.1,12.4,2.6,32.6,0,48.4c-1.5,9.2-7.8,15.4-14.8,19.1c0,0,1.2-24.9,1.6-31.1c0.4-6-0.6-7.3-1.6-8.6
		c0,0,0-0.1,0-0.1c0,0,0,0,0,0c-1-1.3-7.1-3.8-7.1-3.8S226.5,164.7,226.5,158.5z"/>
	<linearGradient id="SVGID_3_" gradientUnits="userSpaceOnUse" x1="23.695" y1="72.2031" x2="234.8282" y2="72.2031">
		<stop  offset="0" style="stop-color:#16428D"/>
		<stop  offset="6.148565e-03" style="stop-color:#265099"/>
		<stop  offset="1.360608e-02" style="stop-color:#315DA5"/>
		<stop  offset="2.221489e-02" style="stop-color:#3967AE"/>
		<stop  offset="3.289744e-02" style="stop-color:#3E6CB3"/>
		<stop  offset="5.198020e-02" style="stop-color:#406EB5"/>
		<stop  offset="5.580361e-02" style="stop-color:#4370B6"/>
		<stop  offset="5.875392e-02" style="stop-color:#4E76BA"/>
		<stop  offset="6.140471e-02" style="stop-color:#5F81C0"/>
		<stop  offset="6.188119e-02" style="stop-color:#6383C2"/>
		<stop  offset="0.8441" style="stop-color:#6383C2"/>
		<stop  offset="0.9307" style="stop-color:#6383C2"/>
		<stop  offset="0.9364" style="stop-color:#6081C1"/>
		<stop  offset="0.9409" style="stop-color:#567BBD"/>
		<stop  offset="0.9448" style="stop-color:#4471B6"/>
		<stop  offset="0.9455" style="stop-color:#406EB5"/>
		<stop  offset="0.9576" style="stop-color:#3C6AB1"/>
		<stop  offset="0.9726" style="stop-color:#3360A7"/>
		<stop  offset="0.9891" style="stop-color:#254F98"/>
		<stop  offset="1" style="stop-color:#16428D"/>
	</linearGradient>
	<path class="st4" d="M223.3,6.8c2.1-0.2,2.6-0.1,2.9,1.7c0.2,1.4,9,85.8,10.6,99c1.5,13.3-0.1,14.9-3.3,22.6l-0.1,0
		c0,0.1-3.9,7.5-7.3,7.7h-0.1c-0.8-40.2-1.8-61.8-3.6-69.4c-0.9-3.7-2.1-5.9-2.1-5.9s0.1-50.4,0.3-52.7C220.9,7.3,221.3,7,223.3,6.8
		z"/>
	<linearGradient id="SVGID_4_" gradientUnits="userSpaceOnUse" x1="224.9901" y1="171.4925" x2="224.9901" y2="224.6293">
		<stop  offset="0" style="stop-color:#16428D"/>
		<stop  offset="3.195480e-03" style="stop-color:#1C4791"/>
		<stop  offset="1.488051e-02" style="stop-color:#2A549D"/>
		<stop  offset="2.867649e-02" style="stop-color:#3360A8"/>
		<stop  offset="4.573495e-02" style="stop-color:#3A68AF"/>
		<stop  offset="6.967304e-02" style="stop-color:#3F6DB4"/>
		<stop  offset="0.1361" style="stop-color:#406EB5"/>
		<stop  offset="0.183" style="stop-color:#4370B6"/>
		<stop  offset="0.2191" style="stop-color:#4E76BA"/>
		<stop  offset="0.2516" style="stop-color:#5F81C0"/>
		<stop  offset="0.2574" style="stop-color:#6383C2"/>
		<stop  offset="0.3084" style="stop-color:#6081C0"/>
		<stop  offset="0.3478" style="stop-color:#567ABC"/>
		<stop  offset="0.3832" style="stop-color:#466EB4"/>
		<stop  offset="0.3886" style="stop-color:#436CB3"/>
		<stop  offset="0.5806" style="stop-color:#3664AD"/>
		<stop  offset="0.698" style="stop-color:#2B5DA8"/>
		<stop  offset="0.846" style="stop-color:#2A5CA7"/>
		<stop  offset="0.9088" style="stop-color:#2757A2"/>
		<stop  offset="0.9554" style="stop-color:#224F9A"/>
		<stop  offset="0.9938" style="stop-color:#19448F"/>
		<stop  offset="1" style="stop-color:#16428D"/>
	</linearGradient>
	<path class="st5" d="M233.6,179.2c-0.8,2.3-9.1,9.3-9.3,9.5l-8.2-2.4l0.1-0.1c1.1-1,10.3-9.7,10.3-14.1c0,0,6.1,2.5,7.1,3.8
		c0,0,0,0,0,0c0,0,0,0,0,0.1C233.8,176.4,234.2,177.3,233.6,179.2z"/>
	<linearGradient id="SVGID_5_" gradientUnits="userSpaceOnUse" x1="219.85" y1="171.2966" x2="219.85" y2="224.601">
		<stop  offset="0" style="stop-color:#16428D"/>
		<stop  offset="3.195480e-03" style="stop-color:#1C4791"/>
		<stop  offset="1.488051e-02" style="stop-color:#2A549D"/>
		<stop  offset="2.867649e-02" style="stop-color:#3360A8"/>
		<stop  offset="4.573495e-02" style="stop-color:#3A68AF"/>
		<stop  offset="6.967304e-02" style="stop-color:#3F6DB4"/>
		<stop  offset="0.1361" style="stop-color:#406EB5"/>
		<stop  offset="0.183" style="stop-color:#4370B6"/>
		<stop  offset="0.2191" style="stop-color:#4E76BA"/>
		<stop  offset="0.2516" style="stop-color:#5F81C0"/>
		<stop  offset="0.2574" style="stop-color:#6383C2"/>
		<stop  offset="0.3084" style="stop-color:#6081C0"/>
		<stop  offset="0.3478" style="stop-color:#567ABC"/>
		<stop  offset="0.3832" style="stop-color:#466EB4"/>
		<stop  offset="0.3886" style="stop-color:#436CB3"/>
		<stop  offset="0.5806" style="stop-color:#3664AD"/>
		<stop  offset="0.698" style="stop-color:#2B5DA8"/>
		<stop  offset="0.846" style="stop-color:#2A5CA7"/>
		<stop  offset="0.9088" style="stop-color:#2757A2"/>
		<stop  offset="0.9554" style="stop-color:#224F9A"/>
		<stop  offset="0.9938" style="stop-color:#19448F"/>
		<stop  offset="1" style="stop-color:#16428D"/>
	</linearGradient>
	<path class="st6" d="M224.3,188.7c0,0.7-0.3,30.2-1.1,30.9c-0.1,0.1-0.4,0.3-0.8,0.5c-0.9,0.4-1.7,0.8-2.3,1.3
		c-2.2,1.1-4.6,2.4-4.6,2.4l0.6-37.3v-0.1l0,0L224.3,188.7z"/>
	<path class="st7" d="M178.7,153.5c-1,1-1.8,1.6-8.9-0.3c-7.1-1.9-26.9-9.5-26.9-9.5l1.3-8.3c2,0,44.3-0.9,44.3-0.9
		s-0.1,6.3-0.2,7.6c-0.1,1.3-0.3,1.8-2.4,4.2C183.9,148.7,179.7,152.5,178.7,153.5z"/>
	<linearGradient id="SVGID_6_" gradientUnits="userSpaceOnUse" x1="196.005" y1="15.8262" x2="196.005" y2="266.9875">
		<stop  offset="0" style="stop-color:#16428D"/>
		<stop  offset="1.051603e-02" style="stop-color:#1C4791"/>
		<stop  offset="4.897042e-02" style="stop-color:#2A549D"/>
		<stop  offset="9.437173e-02" style="stop-color:#3360A8"/>
		<stop  offset="0.1505" style="stop-color:#3A68AF"/>
		<stop  offset="0.2293" style="stop-color:#3F6DB4"/>
		<stop  offset="0.448" style="stop-color:#406EB5"/>
		<stop  offset="0.4738" style="stop-color:#4370B6"/>
		<stop  offset="0.4937" style="stop-color:#4E76BA"/>
		<stop  offset="0.5116" style="stop-color:#5F81C0"/>
		<stop  offset="0.5149" style="stop-color:#6383C2"/>
		<stop  offset="0.5281" style="stop-color:#6081C0"/>
		<stop  offset="0.5384" style="stop-color:#567ABC"/>
		<stop  offset="0.5476" style="stop-color:#466EB4"/>
		<stop  offset="0.5562" style="stop-color:#2E5FAA"/>
		<stop  offset="0.5569" style="stop-color:#2B5DA8"/>
		<stop  offset="0.605" style="stop-color:#2D5EA9"/>
		<stop  offset="0.6254" style="stop-color:#3563AD"/>
		<stop  offset="0.6406" style="stop-color:#426BB2"/>
		<stop  offset="0.6531" style="stop-color:#5478BB"/>
		<stop  offset="0.6609" style="stop-color:#6383C2"/>
		<stop  offset="0.6819" style="stop-color:#6081C1"/>
		<stop  offset="0.6981" style="stop-color:#567BBD"/>
		<stop  offset="0.7127" style="stop-color:#4471B6"/>
		<stop  offset="0.7153" style="stop-color:#406EB5"/>
		<stop  offset="0.8412" style="stop-color:#3E6DB3"/>
		<stop  offset="0.8946" style="stop-color:#3A68AF"/>
		<stop  offset="0.9342" style="stop-color:#325FA7"/>
		<stop  offset="0.9671" style="stop-color:#28539C"/>
		<stop  offset="0.9955" style="stop-color:#1A458F"/>
		<stop  offset="1" style="stop-color:#16428D"/>
	</linearGradient>
	<path class="st8" d="M188.6,256.8c-5.7,4.8-6.8,2.9-7,1.7c0-3.3,0.1-8.3,0.2-14.2l0-2l0-2l0-2l0.9-52.6c0.1-1.8,0.4-3.1,0.6-4.1h0
		c0,0.6,2,0.7,4.1,0.8c8.8,0.6,22.9,0.9,22.9,0.9s-1.9,53.3-2,56.3C208.3,242.6,195.6,250.8,188.6,256.8z"/>
	<path class="st9" d="M183.4,181.5C183.4,181.5,183.4,181.5,183.4,181.5L183.4,181.5C183.4,181.5,183.4,181.5,183.4,181.5z"/>
	<path class="st10" d="M184.2,179.7c-0.3,0.4-0.5,1-0.7,1.8c0,0,0,0.1,0,0.1c-0.3,1-0.5,2.3-0.6,4.1l0.4-15.3
		c0,0,13.7-17.1,13.8-18.2c0.1-1.2,0.8-17.7,0.8-17.7l1.3-64.3h2.6c-0.5,34.2-1.2,78.8-1.3,79.7c-0.1,1.4,0.2,2.8-1,4.9
		C198.2,156.9,184.9,178.6,184.2,179.7z"/>
	<path class="st11" d="M144.2,135.4l-1.3,8.3l-4.4,0.4l0.5-8.7C140.2,135.4,142.2,135.4,144.2,135.4z"/>
	<linearGradient id="SVGID_7_" gradientUnits="userSpaceOnUse" x1="69.9758" y1="143.9089" x2="188.2981" y2="146.4811">
		<stop  offset="0" style="stop-color:#C0BDC0"/>
		<stop  offset="0.3094" style="stop-color:#5D6665"/>
		<stop  offset="0.6856" style="stop-color:#5D6665"/>
		<stop  offset="1" style="stop-color:#C0BDC0"/>
	</linearGradient>
	<path class="st12" d="M142.9,143.7c0,0,19.8,7.6,26.9,9.5c7.1,1.9,7.9,1.3,8.9,0.3s5.1-4.8,7.3-7.3c2.1-2.4,2.4-2.9,2.4-4.2
		c0.1-1.3,0.2-7.6,0.2-7.6h7.7c0,0-0.3,7.8-0.4,9.1c-0.1,1.3-1.3,2.7-5.5,7.1c-4.2,4.4-5.1,5.3-6.3,6.4c-1.1,1-2.8,2.6-9.8,0
		c-9.4-3.4-35.6-13-35.6-13L142.9,143.7z"/>
	<linearGradient id="SVGID_8_" gradientUnits="userSpaceOnUse" x1="76.695" y1="161.6579" x2="183.1953" y2="161.6579">
		<stop  offset="0" style="stop-color:#5D6665"/>
		<stop  offset="0.3589" style="stop-color:#C0BDC0"/>
		<stop  offset="0.5099" style="stop-color:#DFE6E4"/>
		<stop  offset="0.6856" style="stop-color:#C0BDC0"/>
		<stop  offset="1" style="stop-color:#5D6665"/>
	</linearGradient>
	<path class="st13" d="M183.2,170.4c-4.5,5.7-53.7-8.8-53.7-8.8v-10l10.1,3.8l0,0l0.5,0.2l1.7,0.7L183.2,170.4L183.2,170.4z"/>
	<polygon class="st14" points="136.8,146.5 139.6,155.4 129.5,151.6 119.4,155.4 122.2,146.4 129.5,146.2 	"/>
	<linearGradient id="SVGID_9_" gradientUnits="userSpaceOnUse" x1="60.3617" y1="152.4412" x2="197.0283" y2="152.4412">
		<stop  offset="0" style="stop-color:#5D6665"/>
		<stop  offset="0.453" style="stop-color:#C0BDC0"/>
		<stop  offset="0.6238" style="stop-color:#C0BDC0"/>
		<stop  offset="1" style="stop-color:#5D6665"/>
	</linearGradient>
	<path class="st15" d="M138.5,144.1c0,0,26.2,9.6,35.6,13c7.1,2.6,8.7,1,9.8,0c1.3-1.1,2.1-2,6.3-6.4c4.2-4.4,5.4-5.8,5.5-7.1
		c0.1-1.3,0.4-9.1,0.4-9.1h1.5c0,0-0.8,16.5-0.8,17.7c-0.1,1.2-13.8,18.2-13.8,18.2l-0.1,0l-43-14.8l-0.5-0.2l-2.8-8.9L138.5,144.1z
		"/>
	<path class="st16" d="M129.5,146.2l-7.3,0.2l-1.8-2.4l-0.5-8.7c0.9,0,6.1,0,8.7,0c0,0,0.6,0,1.5,0c2.6,0,7.9,0,8.7,0l-0.5,8.7
		l-1.8,2.4L129.5,146.2z"/>
	<linearGradient id="SVGID_10_" gradientUnits="userSpaceOnUse" x1="75.695" y1="213.1334" x2="183.4937" y2="213.1334">
		<stop  offset="0" style="stop-color:#A1A0A2"/>
		<stop  offset="0.1194" style="stop-color:#A6A5A7"/>
		<stop  offset="0.2526" style="stop-color:#B5B7B8"/>
		<stop  offset="0.392" style="stop-color:#D0D5D4"/>
		<stop  offset="0.4505" style="stop-color:#DFE6E4"/>
		<stop  offset="0.4638" style="stop-color:#E9EEED"/>
		<stop  offset="0.4942" style="stop-color:#FAFBFA"/>
		<stop  offset="0.5198" style="stop-color:#FFFFFF"/>
		<stop  offset="0.5336" style="stop-color:#F5F7F7"/>
		<stop  offset="0.565" style="stop-color:#E4EBE9"/>
		<stop  offset="0.5916" style="stop-color:#DFE6E4"/>
		<stop  offset="0.6328" style="stop-color:#D4D9D8"/>
		<stop  offset="0.768" style="stop-color:#B7B8B9"/>
		<stop  offset="0.8938" style="stop-color:#A7A6A8"/>
		<stop  offset="1" style="stop-color:#A1A0A2"/>
	</linearGradient>
	<path class="st17" d="M154.1,264.3c-1.4,0.8-2.3,0.3-3.4-0.1c-1.1-0.5-21.2-10.3-21.2-10.3v-15.2l37,7.6c5.1,1,9.3-2.3,9.3-7.5v-46
		c0-5.2-4.2-10-9.3-11l-37-7v-0.1v-13.1c0,0,49.1,14.5,53.7,8.8l-0.4,15.3c0,0.6-0.1,1.1-0.1,1.8c-0.1,2.7-0.5,29.9-0.8,50.8l0,2
		l0,2l0,2c0,0-21.5,15.8-27.4,19.8C154.3,264.1,154.2,264.2,154.1,264.3z"/>
	<linearGradient id="SVGID_11_" gradientUnits="userSpaceOnUse" x1="76.695" y1="161.6579" x2="183.1953" y2="161.6579">
		<stop  offset="0" style="stop-color:#5D6665"/>
		<stop  offset="0.3589" style="stop-color:#C0BDC0"/>
		<stop  offset="0.5099" style="stop-color:#DFE6E4"/>
		<stop  offset="0.6856" style="stop-color:#C0BDC0"/>
		<stop  offset="1" style="stop-color:#5D6665"/>
	</linearGradient>
	<path class="st18" d="M129.5,151.6v10c0,0-49.2,14.5-53.7,8.8l41.4-14.2l1.8-0.7l0.4-0.1v0L129.5,151.6z"/>
	<path class="st11" d="M114.8,135.4c2,0,4.1,0,5.3,0l0.5,8.7l-4.4-0.4L114.8,135.4z"/>
	<linearGradient id="SVGID_12_" gradientUnits="userSpaceOnUse" x1="75.695" y1="213.1334" x2="183.4937" y2="213.1334">
		<stop  offset="0" style="stop-color:#A1A0A2"/>
		<stop  offset="0.1194" style="stop-color:#A6A5A7"/>
		<stop  offset="0.2526" style="stop-color:#B5B7B8"/>
		<stop  offset="0.392" style="stop-color:#D0D5D4"/>
		<stop  offset="0.4505" style="stop-color:#DFE6E4"/>
		<stop  offset="0.4638" style="stop-color:#E9EEED"/>
		<stop  offset="0.4942" style="stop-color:#FAFBFA"/>
		<stop  offset="0.5198" style="stop-color:#FFFFFF"/>
		<stop  offset="0.5336" style="stop-color:#F5F7F7"/>
		<stop  offset="0.565" style="stop-color:#E4EBE9"/>
		<stop  offset="0.5916" style="stop-color:#DFE6E4"/>
		<stop  offset="0.6328" style="stop-color:#D4D9D8"/>
		<stop  offset="0.768" style="stop-color:#B7B8B9"/>
		<stop  offset="0.8938" style="stop-color:#A7A6A8"/>
		<stop  offset="1" style="stop-color:#A1A0A2"/>
	</linearGradient>
	<path class="st19" d="M75.8,170.4c4.5,5.7,53.7-8.8,53.7-8.8v13.1L92,181.9c-5.1,1-9.3,5.8-9.3,11v46c0,5.2,4.2,8.5,9.3,7.5
		l37.6-7.7l0,0v15.2c0,0-20.1,9.8-21.3,10.3c-1.1,0.4-2,0.9-3.4,0.1c-0.1-0.1-0.2-0.1-0.3-0.2c-5.8-3.9-26.8-19.3-27.3-19.8
		c-0.3-21.4-0.8-53.9-0.9-56.9c0-0.6-0.1-1.2-0.1-1.8v0L75.8,170.4z"/>
	<linearGradient id="SVGID_13_" gradientUnits="userSpaceOnUse" x1="129.5" y1="246.8262" x2="129.5" y2="272.1683">
		<stop  offset="0.3416" style="stop-color:#DFE6E4"/>
		<stop  offset="0.7129" style="stop-color:#777678"/>
	</linearGradient>
	<path class="st20" d="M150.7,264.2c1.1,0.4,2,0.9,3.4,0.1c-0.4,0.3-0.7,0.5-0.9,0.6c-2.6,1.5-23.7,1.5-23.7,1.5
		c-3.8,0-21.2,0-23.8-1.5c-0.2-0.1-0.5-0.3-0.9-0.6c1.4,0.8,2.3,0.3,3.4-0.1c1.1-0.5,21.3-10.3,21.3-10.3S149.6,263.7,150.7,264.2z"
		/>
	<linearGradient id="SVGID_14_" gradientUnits="userSpaceOnUse" x1="57.225" y1="88.1162" x2="201.775" y2="88.1162">
		<stop  offset="0.1095" style="stop-color:#16428D"/>
		<stop  offset="0.1168" style="stop-color:#1C4791"/>
		<stop  offset="0.1433" style="stop-color:#2A549D"/>
		<stop  offset="0.1746" style="stop-color:#3360A8"/>
		<stop  offset="0.2133" style="stop-color:#3A68AF"/>
		<stop  offset="0.2676" style="stop-color:#3F6DB4"/>
		<stop  offset="0.4183" style="stop-color:#406EB5"/>
		<stop  offset="0.4422" style="stop-color:#4370B6"/>
		<stop  offset="0.4607" style="stop-color:#4E76BA"/>
		<stop  offset="0.4772" style="stop-color:#5F81C0"/>
		<stop  offset="0.4802" style="stop-color:#6383C2"/>
		<stop  offset="0.5098" style="stop-color:#6081C1"/>
		<stop  offset="0.5327" style="stop-color:#567BBD"/>
		<stop  offset="0.5532" style="stop-color:#4471B6"/>
		<stop  offset="0.5569" style="stop-color:#406EB5"/>
		<stop  offset="0.7027" style="stop-color:#3E6DB3"/>
		<stop  offset="0.7646" style="stop-color:#3A68AF"/>
		<stop  offset="0.8106" style="stop-color:#325FA7"/>
		<stop  offset="0.8486" style="stop-color:#28539C"/>
		<stop  offset="0.8815" style="stop-color:#1A458F"/>
		<stop  offset="0.8868" style="stop-color:#16428D"/>
	</linearGradient>
	<path class="st21" d="M166.9,40.8c0,0,13,3.2,16.4,5.9c3.3,2.7,18.5,16.3,18.5,16.3c0,2.3-0.1,4.8-0.1,7.2h-2.6l-1.3,64.3h-1.5
		h-7.7c0,0-42.3,0.9-44.3,0.9s-4.1,0-5.3,0c-0.9,0-6.1,0-8.7,0c-0.9,0-1.5,0-1.5,0c-2.6,0-7.9,0-8.7,0c-1.2,0-3.3,0-5.3,0
		s-44.3-0.9-44.3-0.9h-7.7h-1.5l-1.3-64.3h-2.6c0-2.5-0.1-4.9-0.1-7.2c0,0,15.2-13.5,18.5-16.3c3.3-2.7,16.4-5.9,16.4-5.9l0.3,0
		c-4.1,27.8-8.2,58.6-8.5,59.6c-0.4,1.6,0.1,2.6,1.8,4c1.6,1.4,35.2,6.2,36.7,7.2c0.7,0.5,1.9,0.8,3,0.8c0.5,0,7.5,0,8.1,0
		c1.1-0.1,2.3-0.4,2.9-0.8c1.5-1,35.1-5.9,36.7-7.2c1.7-1.4,2.1-2.4,1.8-4c-0.2-1-4.4-31.8-8.5-59.6L166.9,40.8z"/>
	<linearGradient id="SVGID_15_" gradientUnits="userSpaceOnUse" x1="69.9221" y1="146.3811" x2="188.2443" y2="148.9533">
		<stop  offset="0" style="stop-color:#C0BDC0"/>
		<stop  offset="0.3094" style="stop-color:#5D6665"/>
		<stop  offset="0.6856" style="stop-color:#5D6665"/>
		<stop  offset="1" style="stop-color:#C0BDC0"/>
	</linearGradient>
	<path class="st22" d="M70.4,134.5c0,0,0.1,6.3,0.2,7.6s0.3,1.8,2.4,4.2c2.1,2.4,6.3,6.3,7.3,7.3s1.8,1.6,8.9-0.3
		c7.1-1.9,26.9-9.5,26.9-9.5l4.4,0.4c0,0-26.2,9.6-35.6,13c-7.1,2.6-8.7,1-9.8,0c-1.3-1.1-2.1-2-6.3-6.4c-4.2-4.4-5.4-5.8-5.5-7.1
		c-0.1-1.3-0.4-9.1-0.4-9.1H70.4z"/>
	<path class="st9" d="M75.6,181.5C75.6,181.5,75.6,181.5,75.6,181.5L75.6,181.5C75.6,181.5,75.6,181.5,75.6,181.5z"/>
	<linearGradient id="SVGID_16_" gradientUnits="userSpaceOnUse" x1="62.99" y1="15.8262" x2="62.99" y2="266.9875">
		<stop  offset="0" style="stop-color:#16428D"/>
		<stop  offset="1.051603e-02" style="stop-color:#1C4791"/>
		<stop  offset="4.897042e-02" style="stop-color:#2A549D"/>
		<stop  offset="9.437173e-02" style="stop-color:#3360A8"/>
		<stop  offset="0.1505" style="stop-color:#3A68AF"/>
		<stop  offset="0.2293" style="stop-color:#3F6DB4"/>
		<stop  offset="0.448" style="stop-color:#406EB5"/>
		<stop  offset="0.4738" style="stop-color:#4370B6"/>
		<stop  offset="0.4937" style="stop-color:#4E76BA"/>
		<stop  offset="0.5116" style="stop-color:#5F81C0"/>
		<stop  offset="0.5149" style="stop-color:#6383C2"/>
		<stop  offset="0.5281" style="stop-color:#6081C0"/>
		<stop  offset="0.5384" style="stop-color:#567ABC"/>
		<stop  offset="0.5476" style="stop-color:#466EB4"/>
		<stop  offset="0.5562" style="stop-color:#2E5FAA"/>
		<stop  offset="0.5569" style="stop-color:#2B5DA8"/>
		<stop  offset="0.605" style="stop-color:#2D5EA9"/>
		<stop  offset="0.6254" style="stop-color:#3563AD"/>
		<stop  offset="0.6406" style="stop-color:#426BB2"/>
		<stop  offset="0.6531" style="stop-color:#5478BB"/>
		<stop  offset="0.6609" style="stop-color:#6383C2"/>
		<stop  offset="0.6819" style="stop-color:#6081C1"/>
		<stop  offset="0.6981" style="stop-color:#567BBD"/>
		<stop  offset="0.7127" style="stop-color:#4471B6"/>
		<stop  offset="0.7153" style="stop-color:#406EB5"/>
		<stop  offset="0.8412" style="stop-color:#3E6DB3"/>
		<stop  offset="0.8946" style="stop-color:#3A68AF"/>
		<stop  offset="0.9342" style="stop-color:#325FA7"/>
		<stop  offset="0.9671" style="stop-color:#28539C"/>
		<stop  offset="0.9955" style="stop-color:#1A458F"/>
		<stop  offset="1" style="stop-color:#16428D"/>
	</linearGradient>
	<path class="st23" d="M77.4,258.6c-0.2,1.3-1.4,3-7-1.7c-7-6-19.7-14.3-19.8-17.3c-0.1-3-2-56.3-2-56.3s14.1-0.3,22.9-0.9
		c2.1-0.1,4.1-0.3,4.1-0.8h0c0.3,1,0.5,2.3,0.6,4.1v0l1,58.6c0,0,0,0,0,0C77.3,250.2,77.4,255.2,77.4,258.6z"/>
	<path class="st7" d="M70.4,134.5c0,0,42.3,0.9,44.3,0.9l1.3,8.3c0,0-19.8,7.6-26.9,9.5c-7.1,1.9-7.9,1.3-8.9,0.3s-5.1-4.8-7.3-7.3
		c-2.1-2.4-2.4-2.9-2.4-4.2S70.4,134.5,70.4,134.5z"/>
	<linearGradient id="SVGID_17_" gradientUnits="userSpaceOnUse" x1="54.055" y1="15.8262" x2="54.055" y2="266.9875">
		<stop  offset="0" style="stop-color:#16428D"/>
		<stop  offset="1.051603e-02" style="stop-color:#1C4791"/>
		<stop  offset="4.897042e-02" style="stop-color:#2A549D"/>
		<stop  offset="9.437173e-02" style="stop-color:#3360A8"/>
		<stop  offset="0.1505" style="stop-color:#3A68AF"/>
		<stop  offset="0.2293" style="stop-color:#3F6DB4"/>
		<stop  offset="0.448" style="stop-color:#406EB5"/>
		<stop  offset="0.4738" style="stop-color:#4370B6"/>
		<stop  offset="0.4937" style="stop-color:#4E76BA"/>
		<stop  offset="0.5116" style="stop-color:#5F81C0"/>
		<stop  offset="0.5149" style="stop-color:#6383C2"/>
		<stop  offset="0.5281" style="stop-color:#6081C0"/>
		<stop  offset="0.5384" style="stop-color:#567ABC"/>
		<stop  offset="0.5476" style="stop-color:#466EB4"/>
		<stop  offset="0.5562" style="stop-color:#2E5FAA"/>
		<stop  offset="0.5569" style="stop-color:#2B5DA8"/>
		<stop  offset="0.605" style="stop-color:#2D5EA9"/>
		<stop  offset="0.6254" style="stop-color:#3563AD"/>
		<stop  offset="0.6406" style="stop-color:#426BB2"/>
		<stop  offset="0.6531" style="stop-color:#5478BB"/>
		<stop  offset="0.6609" style="stop-color:#6383C2"/>
		<stop  offset="0.6819" style="stop-color:#6081C1"/>
		<stop  offset="0.6981" style="stop-color:#567BBD"/>
		<stop  offset="0.7127" style="stop-color:#4471B6"/>
		<stop  offset="0.7153" style="stop-color:#406EB5"/>
		<stop  offset="0.8412" style="stop-color:#3E6DB3"/>
		<stop  offset="0.8946" style="stop-color:#3A68AF"/>
		<stop  offset="0.9342" style="stop-color:#325FA7"/>
		<stop  offset="0.9671" style="stop-color:#28539C"/>
		<stop  offset="0.9955" style="stop-color:#1A458F"/>
		<stop  offset="1" style="stop-color:#16428D"/>
	</linearGradient>
	<path class="st24" d="M59.6,154.8c1.2,2.1,14.6,23.9,15.3,24.9c0.3,0.4,0.5,1,0.7,1.8c0,0,0,0.1,0,0.1c0,0.6-2,0.7-4.1,0.8
		c-8.8,0.6-22.9,0.9-22.9,0.9s-3.5-4.8-8.5-9.8c-4.8-4.8-7.4-14.4-7.5-15.1c0,0,0,0,0,0c0-3,0-5.7,0-7.2c0.1-4.7,0.2-9.1,0.2-13.4
		l0-0.3c0.8-40.2,1.8-61.8,3.6-69.4c0.9-3.7,2.1-5.9,2.1-5.9s1.2-2.3,1.8-3.3c0.8-1.5,12.4-25.3,16.4-27.4c0,0,0.2,13.5,0.5,31.3
		c0,2.3,0.1,4.8,0.1,7.2c0.5,34.2,1.2,78.8,1.3,79.7C58.7,151.2,58.4,152.6,59.6,154.8z"/>
	<linearGradient id="SVGID_18_" gradientUnits="userSpaceOnUse" x1="60.3617" y1="152.4412" x2="197.0283" y2="152.4412">
		<stop  offset="0" style="stop-color:#5D6665"/>
		<stop  offset="0.453" style="stop-color:#C0BDC0"/>
		<stop  offset="0.6238" style="stop-color:#C0BDC0"/>
		<stop  offset="1" style="stop-color:#5D6665"/>
	</linearGradient>
	<path class="st25" d="M68.7,150.7c4.2,4.4,5,5.3,6.3,6.4c1.1,1,2.8,2.6,9.8,0c9.4-3.4,35.6-13,35.6-13l1.8,2.4l-2.8,8.9l-0.4,0.2
		l-43.1,14.8c0,0-13.7-17.1-13.8-18.2c-0.1-1.2-0.8-17.7-0.8-17.7h1.5c0,0,0.3,7.8,0.4,9.1C63.3,144.9,64.5,146.3,68.7,150.7z"/>
	<path class="st10" d="M62.1,152.2c0.1,1.2,13.8,18.2,13.8,18.2l0.4,15.3c-0.1-1.8-0.4-3.1-0.6-4.1c0,0,0-0.1,0-0.1
		c-0.2-0.8-0.5-1.4-0.7-1.8c-0.7-1.1-14.1-22.8-15.3-24.9c-1.2-2.1-0.9-3.5-1-4.9c0-0.9-0.7-45.5-1.3-79.7h2.6l1.3,64.3
		C61.3,134.5,62,151,62.1,152.2z"/>
	<linearGradient id="SVGID_19_" gradientUnits="userSpaceOnUse" x1="23.695" y1="72.203" x2="234.8282" y2="72.203">
		<stop  offset="0" style="stop-color:#16428D"/>
		<stop  offset="6.148565e-03" style="stop-color:#265099"/>
		<stop  offset="1.360608e-02" style="stop-color:#315DA5"/>
		<stop  offset="2.221489e-02" style="stop-color:#3967AE"/>
		<stop  offset="3.289744e-02" style="stop-color:#3E6CB3"/>
		<stop  offset="5.198020e-02" style="stop-color:#406EB5"/>
		<stop  offset="5.580361e-02" style="stop-color:#4370B6"/>
		<stop  offset="5.875392e-02" style="stop-color:#4E76BA"/>
		<stop  offset="6.140471e-02" style="stop-color:#5F81C0"/>
		<stop  offset="6.188119e-02" style="stop-color:#6383C2"/>
		<stop  offset="0.8441" style="stop-color:#6383C2"/>
		<stop  offset="0.9307" style="stop-color:#6383C2"/>
		<stop  offset="0.9364" style="stop-color:#6081C1"/>
		<stop  offset="0.9409" style="stop-color:#567BBD"/>
		<stop  offset="0.9448" style="stop-color:#4471B6"/>
		<stop  offset="0.9455" style="stop-color:#406EB5"/>
		<stop  offset="0.9576" style="stop-color:#3C6AB1"/>
		<stop  offset="0.9726" style="stop-color:#3360A7"/>
		<stop  offset="0.9891" style="stop-color:#254F98"/>
		<stop  offset="1" style="stop-color:#16428D"/>
	</linearGradient>
	<path class="st26" d="M32.8,8.4c0.3-1.7,0.8-1.9,2.9-1.7c2.1,0.2,2.5,0.5,2.6,2.8c0.2,2.4,0.3,52.7,0.3,52.7s-1.2,2.3-2.1,5.9
		c-1.8,7.6-2.9,29.2-3.6,69.4c-3.3-0.2-7.2-7.6-7.3-7.7l-0.1,0.1c-3.2-7.7-4.8-9.3-3.3-22.6C23.7,94.2,32.5,9.9,32.8,8.4z"/>
	<linearGradient id="SVGID_20_" gradientUnits="userSpaceOnUse" x1="39.15" y1="171.3387" x2="39.15" y2="224.6002">
		<stop  offset="0" style="stop-color:#16428D"/>
		<stop  offset="3.195480e-03" style="stop-color:#1C4791"/>
		<stop  offset="1.488051e-02" style="stop-color:#2A549D"/>
		<stop  offset="2.867649e-02" style="stop-color:#3360A8"/>
		<stop  offset="4.573495e-02" style="stop-color:#3A68AF"/>
		<stop  offset="6.967304e-02" style="stop-color:#3F6DB4"/>
		<stop  offset="0.1361" style="stop-color:#406EB5"/>
		<stop  offset="0.183" style="stop-color:#4370B6"/>
		<stop  offset="0.2191" style="stop-color:#4E76BA"/>
		<stop  offset="0.2516" style="stop-color:#5F81C0"/>
		<stop  offset="0.2574" style="stop-color:#6383C2"/>
		<stop  offset="0.3084" style="stop-color:#6081C0"/>
		<stop  offset="0.3478" style="stop-color:#567ABC"/>
		<stop  offset="0.3832" style="stop-color:#466EB4"/>
		<stop  offset="0.3886" style="stop-color:#436CB3"/>
		<stop  offset="0.5806" style="stop-color:#3664AD"/>
		<stop  offset="0.698" style="stop-color:#2B5DA8"/>
		<stop  offset="0.846" style="stop-color:#2A5CA7"/>
		<stop  offset="0.9088" style="stop-color:#2757A2"/>
		<stop  offset="0.9554" style="stop-color:#224F9A"/>
		<stop  offset="0.9938" style="stop-color:#19448F"/>
		<stop  offset="1" style="stop-color:#16428D"/>
	</linearGradient>
	<path class="st27" d="M43.6,223.7c0,0-2.5-1.2-4.6-2.4v0c-0.6-0.5-1.4-0.9-2.3-1.3c-0.4-0.2-0.7-0.4-0.8-0.5
		c-0.9-0.7-1.1-30.2-1.1-30.9l8.3-2.4v0.1L43.6,223.7z"/>
	<path class="st28" d="M32.8,137.7l0,0.3c-3.5-0.2-7.3-7.5-7.5-7.8l0.1-0.1l0.1-0.1C25.6,130.1,29.5,137.5,32.8,137.7z"/>
	<path class="st1" d="M32.5,172.2c0,0,0-7.4,0-13.6c0.2,0.7,2.7,10.3,7.5,15.1c5,5,8.5,9.8,8.5,9.8s1.9,53.3,2,56.3
		c0.1,3,12.8,11.3,19.8,17.3c5.6,4.8,6.8,3,7,1.7c0,2.4,0.1,4,0.1,4.3c0,2.1,0.1,5-5.4,2.5s-27.5-17.8-29.6-21.3
		c-2.1-3.5-2.3-7.1-3.5-22.7c2.2,1.1,4.6,2.4,4.6,2.4L43,186.5v-0.1l0,0l-0.1-0.1C41.7,185.2,32.5,176.5,32.5,172.2z"/>
	<linearGradient id="SVGID_21_" gradientUnits="userSpaceOnUse" x1="34.0149" y1="171.4929" x2="34.0149" y2="224.5976">
		<stop  offset="0" style="stop-color:#16428D"/>
		<stop  offset="3.195480e-03" style="stop-color:#1C4791"/>
		<stop  offset="1.488051e-02" style="stop-color:#2A549D"/>
		<stop  offset="2.867649e-02" style="stop-color:#3360A8"/>
		<stop  offset="4.573495e-02" style="stop-color:#3A68AF"/>
		<stop  offset="6.967304e-02" style="stop-color:#3F6DB4"/>
		<stop  offset="0.1361" style="stop-color:#406EB5"/>
		<stop  offset="0.183" style="stop-color:#4370B6"/>
		<stop  offset="0.2191" style="stop-color:#4E76BA"/>
		<stop  offset="0.2516" style="stop-color:#5F81C0"/>
		<stop  offset="0.2574" style="stop-color:#6383C2"/>
		<stop  offset="0.3084" style="stop-color:#6081C0"/>
		<stop  offset="0.3478" style="stop-color:#567ABC"/>
		<stop  offset="0.3832" style="stop-color:#466EB4"/>
		<stop  offset="0.3886" style="stop-color:#436CB3"/>
		<stop  offset="0.5806" style="stop-color:#3664AD"/>
		<stop  offset="0.698" style="stop-color:#2B5DA8"/>
		<stop  offset="0.846" style="stop-color:#2A5CA7"/>
		<stop  offset="0.9088" style="stop-color:#2757A2"/>
		<stop  offset="0.9554" style="stop-color:#224F9A"/>
		<stop  offset="0.9938" style="stop-color:#19448F"/>
		<stop  offset="1" style="stop-color:#16428D"/>
	</linearGradient>
	<path class="st29" d="M32.5,172.2c0,4.4,9.2,13,10.3,14.1l0.1,0.1l0,0l-8.3,2.4c0,0-8.5-7.2-9.3-9.5c-0.6-1.9-0.2-2.8-0.1-3.1
		c0,0,0-0.1,0-0.1c0,0,0,0,0,0C26.4,174.7,32.5,172.2,32.5,172.2z"/>
	<linearGradient id="SVGID_22_" gradientUnits="userSpaceOnUse" x1="7.695" y1="172.9212" x2="252.3698" y2="172.9212">
		<stop  offset="0" style="stop-color:#16428D"/>
		<stop  offset="2.986446e-02" style="stop-color:#265099"/>
		<stop  offset="6.608669e-02" style="stop-color:#315DA5"/>
		<stop  offset="0.1079" style="stop-color:#3967AE"/>
		<stop  offset="0.1598" style="stop-color:#3E6CB3"/>
		<stop  offset="0.2525" style="stop-color:#406EB5"/>
		<stop  offset="0.3404" style="stop-color:#4370B6"/>
		<stop  offset="0.4083" style="stop-color:#4E76BA"/>
		<stop  offset="0.4692" style="stop-color:#5F81C0"/>
		<stop  offset="0.4802" style="stop-color:#6383C2"/>
		<stop  offset="0.5949" style="stop-color:#6081C1"/>
		<stop  offset="0.6834" style="stop-color:#567BBD"/>
		<stop  offset="0.7629" style="stop-color:#4471B6"/>
		<stop  offset="0.7772" style="stop-color:#406EB5"/>
		<stop  offset="0.8266" style="stop-color:#3C6AB1"/>
		<stop  offset="0.8881" style="stop-color:#3360A7"/>
		<stop  offset="0.9556" style="stop-color:#254F98"/>
		<stop  offset="1" style="stop-color:#16428D"/>
	</linearGradient>
	<path class="st30" d="M23.8,184.7c0.4,6.2,1.6,31.1,1.6,31.1c-7-3.7-13.2-9.9-14.7-19.1c-2.6-15.8-3.1-36,0-48.4
		c2.9-11.7,13.6-17.5,14.8-18.1c0.2,0.3,4,7.6,7.5,7.8c-0.1,4.3-0.1,8.7-0.2,13.4c0,1.5,0,4.2,0,7.2c0,0,0,0,0,0
		c0,6.2,0,13.6,0,13.6s-6.1,2.5-7.1,3.8c0,0,0,0,0,0c0,0,0,0,0,0.1C24.4,177.4,23.3,178.6,23.8,184.7z"/>
	<path class="st0" d="M36.6,220.1c-3-1.3-7.4-2.3-11.3-4.4c0,0-1.2-24.9-1.6-31.1c-0.4-6,0.6-7.3,1.6-8.6c-0.2,0.3-0.6,1.2,0.1,3.1
		c0.8,2.3,9.3,9.5,9.3,9.5v0c0,0.7,0.3,30.2,1.1,30.9C36,219.7,36.3,219.9,36.6,220.1z"/>
	<path class="st31" d="M25.5,130.1c-3.2-7.7-4.8-9.3-3.3-22.6C23.7,94.2,32.5,9.9,32.8,8.4c0.3-1.7,0.8-1.9,2.9-1.7
		c2.1,0.2,2.5,0.5,2.6,2.8c0.2,2.4,0.3,52.7,0.3,52.7s1.2-2.3,1.8-3.3c0.8-1.5,12.4-25.3,16.4-27.4c0,0,0.2,13.5,0.5,31.3
		c0,2.3,0.1,4.8,0.1,7.2c0.5,34.2,1.2,78.8,1.3,79.7c0.1,1.4-0.2,2.8,1,4.9c1.2,2.1,14.6,23.9,15.3,24.9c0.3,0.4,0.5,1,0.7,1.8
		c0,0,0,0.1,0,0.1c0.3,1,0.5,2.3,0.6,4.1"/>
	<path class="st31" d="M76.2,185.7c0,0.6,0.1,1.1,0.1,1.8c0.1,3,0.6,35.5,0.9,56.9c0.1,5.9,0.1,10.9,0.2,14.2c0,2.4,0.1,4,0.1,4.3
		c0,2.1,0.1,5-5.4,2.5s-27.5-17.8-29.6-21.3c-2.1-3.5-3.5-22.3-3.5-22.3c-0.6-0.5-3.5-2.1-3.7-2.4c-2.9-1.2-6.4-1.7-10-3.6
		c-7-3.7-13.2-9.9-14.7-19.1c-2.6-15.8-3.1-36,0-48.4c2.9-11.7,13.6-17.5,14.8-18.1"/>
	<path class="st31" d="M32.8,137.9c-0.1,4.3-0.1,8.7-0.2,13.4c0,1.5,0.5,17.9,0.5,20.8"/>
	<path class="st31" d="M38.6,62.3c0,0-1.2,2.3-2.1,5.9c-1.8,7.6-2.9,29.2-3.6,69.4"/>
	<path class="st31" d="M233.7,130.2c1.4,0.7,11.9,6.4,14.7,18.1c3.1,12.4,2.6,32.6,0,48.4c-1.5,9.2-7.8,15.4-14.8,19.1
		c-3.5,1.9-7.1,2.8-10.1,3.9c-0.4,0.4-2.9,1.6-3.5,2.1c-1.2,15.7-1.4,18.9-3.5,22.4c-2.1,3.5-24.1,18.8-29.6,21.3s-5.4-0.4-5.4-2.5
		c0-0.3,0-1.8,0.1-4.3c0-3.3,0.1-8.3,0.2-14.2l0.1-6c0.3-21,0.7-48.1,0.8-50.8c0-0.6,0.1-1.2,0.1-1.8c0.1-1.8,0.4-3.1,0.6-4.1
		c0,0,0-0.1,0-0.1c0.2-0.8,0.5-1.4,0.7-1.8c0.7-1.1,14.1-22.8,15.3-24.9c1.2-2.1,0.9-3.5,1-4.9c0.1-0.9,0.7-45.5,1.3-79.7
		c0-2.5,0.1-4.9,0.1-7.2c0.3-17.8,0.5-31.3,0.5-31.3c4,2.2,15.6,25.9,16.4,27.4c0.5,0.9,1.8,3.3,1.8,3.3s0.1-50.4,0.3-52.7
		c0.2-2.3,0.6-2.6,2.6-2.8c2.1-0.2,2.6-0.1,2.9,1.7c0.2,1.4,9,85.8,10.6,99c1.5,13.3-0.1,14.9-3.3,22.6"/>
	<path class="st31" d="M220.4,62.3c0,0,1.2,2.3,2.1,5.9c1.8,7.6,2.9,29.2,3.6,69.4c0.1,4.3,0.2,8.9,0.2,13.6c0,1.5,0,4.2,0,7.2
		c0,6.2-0.3,13.7-0.3,13.7"/>
	<path class="st28" d="M233.5,130.1c0,0,0.1,0,0.1,0.1c-0.3,0.5-4.1,7.6-7.4,7.8l0-0.3C229.5,137.5,233.4,130.1,233.5,130.1
		L233.5,130.1C233.5,130.1,233.5,130.1,233.5,130.1z"/>
	<path class="st32" d="M166.5,184.9l-37-7.5L92,185c-1.5,0.3-2.5,1.8-2.5,3.3V237c0,1.6,1.1,2.6,2.5,2.3l37.5-7.7l37,7.6
		c1.5,0.3,2.5-0.7,2.5-2.3v-48.7C169.1,186.6,168,185.2,166.5,184.9z M110.9,230.7l-15.5,3.2v-44.7l15.5-3.2
		c10.9-2.2,16.9,3.8,16.9,18.7C127.8,217.6,123.7,227.9,110.9,230.7z"/>
	<path class="st33" d="M163,199.9c0,6-4.4,8.7-7.4,8.9c7.6,3.3,8.9,9.5,8.9,12.6c0,12.6-12.3,10.1-16.3,9.2l-14.9-3v-44.7l17.7,3.6
		C162.8,189,163,199,163,199.9z M147.4,223.3c1.6,0.3,6.8,1.4,6.8-4.3c0-2.5-1.3-6-6.6-7.1l-4.4-0.9v11.5L147.4,223.3z M147.3,203.5
		c3.5,0.7,5.5-1.3,5.5-4.3c0-3.7-1.8-5.8-6.3-6.7l-3.2-0.7v10.8L147.3,203.5z"/>
	<path class="st33" d="M166.5,177.9l-37-7.5L92,178.1c-5.1,1-9.3,6.1-9.3,11.6v48.7c0,5.5,4.2,9,9.3,7.9l37.5-7.7l37,7.5
		c5.1,1,9.3-2.4,9.3-7.9v-48.7C175.8,184.1,171.6,179,166.5,177.9z M169.1,236.9c0,1.6-1.1,2.6-2.5,2.3l-37-7.6L92,239.3
		c-1.5,0.3-2.5-0.7-2.5-2.3v-48.7c0-1.6,1.1-3,2.5-3.3l37.5-7.7l37,7.5c1.5,0.3,2.5,1.8,2.5,3.3V236.9z"/>
	<path class="st33" d="M110.9,186c10.9-2.2,16.9,3.8,16.9,18.7c0,12.9-4.1,23.3-16.9,26l-15.5,3.2v-44.7L110.9,186z M117.6,207.7
		c0-9-0.9-15.8-10-14l-2.1,0.4v30.4l3.6-0.7C114.5,222.7,117.6,217.5,117.6,207.7z"/>
	<path class="st32" d="M107.6,193.7c9.2-1.9,10,5,10,14c0,9.8-3.1,15-8.5,16.1l-3.6,0.7v-30.4L107.6,193.7z"/>
	<ellipse class="st32" cx="98.2" cy="140.1" rx="7.3" ry="2.8"/>
	<ellipse class="st32" cx="173" cy="140.1" rx="7.3" ry="2.8"/>
	<linearGradient id="SVGID_23_" gradientUnits="userSpaceOnUse" x1="82.705" y1="71.6462" x2="175.785" y2="71.6462">
		<stop  offset="0" style="stop-color:#16428D"/>
		<stop  offset="9.818837e-03" style="stop-color:#1C4791"/>
		<stop  offset="4.572376e-02" style="stop-color:#2A549D"/>
		<stop  offset="8.811504e-02" style="stop-color:#3360A8"/>
		<stop  offset="0.1405" style="stop-color:#3A68AF"/>
		<stop  offset="0.2141" style="stop-color:#3F6DB4"/>
		<stop  offset="0.4183" style="stop-color:#406EB5"/>
		<stop  offset="0.5431" style="stop-color:#406EB5"/>
		<stop  offset="0.5569" style="stop-color:#406EB5"/>
		<stop  offset="0.7528" style="stop-color:#3E6DB3"/>
		<stop  offset="0.8359" style="stop-color:#3A68AF"/>
		<stop  offset="0.8976" style="stop-color:#325FA7"/>
		<stop  offset="0.9488" style="stop-color:#28539C"/>
		<stop  offset="0.993" style="stop-color:#1A458F"/>
		<stop  offset="1" style="stop-color:#16428D"/>
	</linearGradient>
	<path class="st34" d="M163.8,119.8H94.7c-6.6,0-12-5.4-12-12V35.5c0-6.6,5.4-12,12-12h69.1c6.6,0,12,5.4,12,12v72.4
		C175.8,114.4,170.4,119.8,163.8,119.8z"/>
	<path class="st7" d="M160.8,111.1H97.7c-3.6,0-6.6-3-6.6-6.6V38.7c0-3.6,3-6.6,6.6-6.6h63.1c3.6,0,6.6,3,6.6,6.6v65.8
		C167.4,108.2,164.4,111.1,160.8,111.1z"/>
	<g>
		<defs>
			<path id="SVGID_24_" d="M160.8,111.1H97.7c-3.6,0-6.6-3-6.6-6.6V38.7c0-3.6,3-6.6,6.6-6.6h63.1c3.6,0,6.6,3,6.6,6.6v65.8
				C167.4,108.2,164.4,111.1,160.8,111.1z"/>
		</defs>
		<clipPath id="SVGID_25_">
			<use xlink:href="#SVGID_24_"  style="overflow:visible;"/>
		</clipPath>
		<polyline class="st35" points="167.9,34.7 150.5,68.7 134.1,60.1 119.4,93.3 107.2,81.5 82.7,106.6 		"/>
		<polygon class="st36" points="167.9,34.7 150.5,68.7 134.1,60.1 119.4,93.3 107.2,81.5 82.7,106.6 105.7,117.3 170.9,114.7 
			170.9,37.5 		"/>
	</g>
	<path class="st37" d="M160.8,111.1H97.7c-3.6,0-6.6-3-6.6-6.6V38.7c0-3.6,3-6.6,6.6-6.6h63.1c3.6,0,6.6,3,6.6,6.6v65.8
		C167.4,108.2,164.4,111.1,160.8,111.1z"/>
</g>
</svg>
